<mxfile host="app.diagrams.net" agent="Mozilla/5.0 (Windows NT 10.0; Win64; x64) AppleWebKit/537.36 (KHTML, like Gecko) Chrome/131.0.0.0 Safari/537.36" version="26.0.5">
  <diagram name="Seite-1" id="KU---IKWdj9QZMLpcKR2">
    <mxGraphModel dx="2122" dy="486" grid="1" gridSize="10" guides="1" tooltips="1" connect="1" arrows="1" fold="1" page="1" pageScale="1" pageWidth="827" pageHeight="1169" math="0" shadow="0">
      <root>
        <mxCell id="0" />
        <mxCell id="1" parent="0" />
        <mxCell id="ZJUDYs6P_OA5Siq6tx2q-1" value="Main" style="rhombus;whiteSpace=wrap;html=1;" vertex="1" parent="1">
          <mxGeometry x="374" y="40" width="80" height="40" as="geometry" />
        </mxCell>
        <mxCell id="ZJUDYs6P_OA5Siq6tx2q-2" value="" style="endArrow=classic;html=1;rounded=0;exitX=0;exitY=0.5;exitDx=0;exitDy=0;entryX=0.5;entryY=0;entryDx=0;entryDy=0;" edge="1" parent="1" source="ZJUDYs6P_OA5Siq6tx2q-1" target="ZJUDYs6P_OA5Siq6tx2q-6">
          <mxGeometry width="50" height="50" relative="1" as="geometry">
            <mxPoint x="200" y="210" as="sourcePoint" />
            <mxPoint x="230" y="140" as="targetPoint" />
            <Array as="points">
              <mxPoint x="230" y="60" />
            </Array>
          </mxGeometry>
        </mxCell>
        <mxCell id="ZJUDYs6P_OA5Siq6tx2q-3" value="" style="endArrow=classic;html=1;rounded=0;exitX=1;exitY=0.5;exitDx=0;exitDy=0;entryX=0.5;entryY=0;entryDx=0;entryDy=0;" edge="1" parent="1" source="ZJUDYs6P_OA5Siq6tx2q-1" target="ZJUDYs6P_OA5Siq6tx2q-9">
          <mxGeometry width="50" height="50" relative="1" as="geometry">
            <mxPoint x="564" y="80" as="sourcePoint" />
            <mxPoint x="490" y="130" as="targetPoint" />
            <Array as="points">
              <mxPoint x="600" y="60" />
            </Array>
          </mxGeometry>
        </mxCell>
        <mxCell id="ZJUDYs6P_OA5Siq6tx2q-4" value="" style="endArrow=classic;html=1;rounded=0;exitX=0.5;exitY=1;exitDx=0;exitDy=0;entryX=0.5;entryY=0;entryDx=0;entryDy=0;" edge="1" parent="1" source="ZJUDYs6P_OA5Siq6tx2q-1" target="ZJUDYs6P_OA5Siq6tx2q-7">
          <mxGeometry width="50" height="50" relative="1" as="geometry">
            <mxPoint x="390" y="300" as="sourcePoint" />
            <mxPoint x="414" y="130" as="targetPoint" />
          </mxGeometry>
        </mxCell>
        <mxCell id="ZJUDYs6P_OA5Siq6tx2q-20" style="edgeStyle=orthogonalEdgeStyle;rounded=0;orthogonalLoop=1;jettySize=auto;html=1;entryX=0;entryY=0;entryDx=0;entryDy=0;exitX=0.5;exitY=1;exitDx=0;exitDy=0;" edge="1" parent="1" source="ZJUDYs6P_OA5Siq6tx2q-6" target="ZJUDYs6P_OA5Siq6tx2q-18">
          <mxGeometry relative="1" as="geometry" />
        </mxCell>
        <mxCell id="ZJUDYs6P_OA5Siq6tx2q-6" value="Scan" style="rhombus;whiteSpace=wrap;html=1;" vertex="1" parent="1">
          <mxGeometry x="190" y="140" width="80" height="40" as="geometry" />
        </mxCell>
        <mxCell id="ZJUDYs6P_OA5Siq6tx2q-19" style="edgeStyle=orthogonalEdgeStyle;rounded=0;orthogonalLoop=1;jettySize=auto;html=1;entryX=0.5;entryY=0;entryDx=0;entryDy=0;" edge="1" parent="1" source="ZJUDYs6P_OA5Siq6tx2q-7" target="ZJUDYs6P_OA5Siq6tx2q-18">
          <mxGeometry relative="1" as="geometry" />
        </mxCell>
        <mxCell id="ZJUDYs6P_OA5Siq6tx2q-7" value="Scan" style="rhombus;whiteSpace=wrap;html=1;" vertex="1" parent="1">
          <mxGeometry x="374" y="140" width="80" height="40" as="geometry" />
        </mxCell>
        <mxCell id="ZJUDYs6P_OA5Siq6tx2q-21" style="edgeStyle=orthogonalEdgeStyle;rounded=0;orthogonalLoop=1;jettySize=auto;html=1;entryX=1;entryY=0;entryDx=0;entryDy=0;exitX=0.5;exitY=1;exitDx=0;exitDy=0;" edge="1" parent="1" source="ZJUDYs6P_OA5Siq6tx2q-9" target="ZJUDYs6P_OA5Siq6tx2q-18">
          <mxGeometry relative="1" as="geometry" />
        </mxCell>
        <mxCell id="ZJUDYs6P_OA5Siq6tx2q-9" value="Scan" style="rhombus;whiteSpace=wrap;html=1;" vertex="1" parent="1">
          <mxGeometry x="560" y="140" width="80" height="40" as="geometry" />
        </mxCell>
        <mxCell id="ZJUDYs6P_OA5Siq6tx2q-11" value="" style="endArrow=classic;html=1;rounded=0;exitX=0;exitY=1;exitDx=0;exitDy=0;entryX=0.5;entryY=1;entryDx=0;entryDy=0;" edge="1" parent="1" source="ZJUDYs6P_OA5Siq6tx2q-6" target="ZJUDYs6P_OA5Siq6tx2q-12">
          <mxGeometry width="50" height="50" relative="1" as="geometry">
            <mxPoint x="100" y="260" as="sourcePoint" />
            <mxPoint x="140" y="160" as="targetPoint" />
            <Array as="points">
              <mxPoint x="200" y="180" />
            </Array>
          </mxGeometry>
        </mxCell>
        <mxCell id="ZJUDYs6P_OA5Siq6tx2q-17" value="" style="edgeStyle=orthogonalEdgeStyle;rounded=0;orthogonalLoop=1;jettySize=auto;html=1;" edge="1" parent="1" source="ZJUDYs6P_OA5Siq6tx2q-12" target="ZJUDYs6P_OA5Siq6tx2q-15">
          <mxGeometry relative="1" as="geometry" />
        </mxCell>
        <mxCell id="ZJUDYs6P_OA5Siq6tx2q-12" value="&lt;font style=&quot;font-size: 11px;&quot;&gt;Spill&lt;/font&gt;&lt;div&gt;&lt;font style=&quot;font-size: 11px;&quot;&gt;to S3&lt;/font&gt;&lt;/div&gt;" style="rhombus;whiteSpace=wrap;html=1;" vertex="1" parent="1">
          <mxGeometry x="60" y="140" width="80" height="40" as="geometry" />
        </mxCell>
        <mxCell id="ZJUDYs6P_OA5Siq6tx2q-13" value="" style="endArrow=classic;html=1;rounded=0;exitX=0.5;exitY=0;exitDx=0;exitDy=0;entryX=0;entryY=0;entryDx=0;entryDy=0;" edge="1" parent="1" source="ZJUDYs6P_OA5Siq6tx2q-12" target="ZJUDYs6P_OA5Siq6tx2q-6">
          <mxGeometry width="50" height="50" relative="1" as="geometry">
            <mxPoint x="340" y="240" as="sourcePoint" />
            <mxPoint x="390" y="190" as="targetPoint" />
            <Array as="points">
              <mxPoint x="200" y="140" />
            </Array>
          </mxGeometry>
        </mxCell>
        <mxCell id="ZJUDYs6P_OA5Siq6tx2q-15" value="&lt;font style=&quot;font-size: 8px;&quot;&gt;Add file to Mana&lt;/font&gt;" style="rhombus;whiteSpace=wrap;html=1;" vertex="1" parent="1">
          <mxGeometry x="-50" y="140" width="80" height="40" as="geometry" />
        </mxCell>
        <mxCell id="ZJUDYs6P_OA5Siq6tx2q-18" value="Main" style="rhombus;whiteSpace=wrap;html=1;" vertex="1" parent="1">
          <mxGeometry x="374" y="240" width="80" height="40" as="geometry" />
        </mxCell>
        <mxCell id="ZJUDYs6P_OA5Siq6tx2q-24" value="" style="endArrow=classic;html=1;rounded=0;exitX=0;exitY=1;exitDx=0;exitDy=0;entryX=0.5;entryY=0;entryDx=0;entryDy=0;" edge="1" source="ZJUDYs6P_OA5Siq6tx2q-18" parent="1" target="ZJUDYs6P_OA5Siq6tx2q-33">
          <mxGeometry width="50" height="50" relative="1" as="geometry">
            <mxPoint x="374" y="330" as="sourcePoint" />
            <mxPoint x="230" y="410" as="targetPoint" />
            <Array as="points">
              <mxPoint x="230" y="270" />
            </Array>
          </mxGeometry>
        </mxCell>
        <mxCell id="ZJUDYs6P_OA5Siq6tx2q-25" value="" style="endArrow=classic;html=1;rounded=0;exitX=1;exitY=1;exitDx=0;exitDy=0;entryX=0.5;entryY=0;entryDx=0;entryDy=0;" edge="1" source="ZJUDYs6P_OA5Siq6tx2q-18" target="ZJUDYs6P_OA5Siq6tx2q-31" parent="1">
          <mxGeometry width="50" height="50" relative="1" as="geometry">
            <mxPoint x="454" y="330" as="sourcePoint" />
            <mxPoint x="490" y="400" as="targetPoint" />
            <Array as="points">
              <mxPoint x="600" y="270" />
            </Array>
          </mxGeometry>
        </mxCell>
        <mxCell id="ZJUDYs6P_OA5Siq6tx2q-26" value="" style="endArrow=classic;html=1;rounded=0;exitX=0.5;exitY=1;exitDx=0;exitDy=0;entryX=0.5;entryY=0;entryDx=0;entryDy=0;" edge="1" source="ZJUDYs6P_OA5Siq6tx2q-18" target="ZJUDYs6P_OA5Siq6tx2q-29" parent="1">
          <mxGeometry width="50" height="50" relative="1" as="geometry">
            <mxPoint x="414" y="350" as="sourcePoint" />
            <mxPoint x="414" y="400" as="targetPoint" />
          </mxGeometry>
        </mxCell>
        <mxCell id="ZJUDYs6P_OA5Siq6tx2q-27" style="edgeStyle=orthogonalEdgeStyle;rounded=0;orthogonalLoop=1;jettySize=auto;html=1;entryX=0;entryY=0.5;entryDx=0;entryDy=0;exitX=0.5;exitY=1;exitDx=0;exitDy=0;" edge="1" target="ZJUDYs6P_OA5Siq6tx2q-32" parent="1" source="ZJUDYs6P_OA5Siq6tx2q-33">
          <mxGeometry relative="1" as="geometry">
            <mxPoint x="230" y="380" as="sourcePoint" />
          </mxGeometry>
        </mxCell>
        <mxCell id="ZJUDYs6P_OA5Siq6tx2q-28" style="edgeStyle=orthogonalEdgeStyle;rounded=0;orthogonalLoop=1;jettySize=auto;html=1;entryX=0.5;entryY=0;entryDx=0;entryDy=0;" edge="1" source="ZJUDYs6P_OA5Siq6tx2q-29" target="ZJUDYs6P_OA5Siq6tx2q-32" parent="1">
          <mxGeometry relative="1" as="geometry" />
        </mxCell>
        <mxCell id="ZJUDYs6P_OA5Siq6tx2q-29" value="&lt;font style=&quot;font-size: 8px;&quot;&gt;merge Partition 1&lt;/font&gt;" style="rhombus;whiteSpace=wrap;html=1;" vertex="1" parent="1">
          <mxGeometry x="374" y="340" width="80" height="40" as="geometry" />
        </mxCell>
        <mxCell id="ZJUDYs6P_OA5Siq6tx2q-30" style="edgeStyle=orthogonalEdgeStyle;rounded=0;orthogonalLoop=1;jettySize=auto;html=1;entryX=1;entryY=0.5;entryDx=0;entryDy=0;exitX=0.5;exitY=1;exitDx=0;exitDy=0;" edge="1" source="ZJUDYs6P_OA5Siq6tx2q-31" target="ZJUDYs6P_OA5Siq6tx2q-32" parent="1">
          <mxGeometry relative="1" as="geometry" />
        </mxCell>
        <mxCell id="ZJUDYs6P_OA5Siq6tx2q-31" value="&lt;font style=&quot;font-size: 8px;&quot;&gt;merge Partition 2&lt;/font&gt;" style="rhombus;whiteSpace=wrap;html=1;" vertex="1" parent="1">
          <mxGeometry x="560" y="340" width="80" height="40" as="geometry" />
        </mxCell>
        <mxCell id="ZJUDYs6P_OA5Siq6tx2q-32" value="Main" style="rhombus;whiteSpace=wrap;html=1;" vertex="1" parent="1">
          <mxGeometry x="374" y="440" width="80" height="40" as="geometry" />
        </mxCell>
        <mxCell id="ZJUDYs6P_OA5Siq6tx2q-33" value="&lt;font style=&quot;font-size: 8px;&quot;&gt;merge Partition 0&lt;/font&gt;" style="rhombus;whiteSpace=wrap;html=1;" vertex="1" parent="1">
          <mxGeometry x="190" y="340" width="80" height="40" as="geometry" />
        </mxCell>
        <mxCell id="ZJUDYs6P_OA5Siq6tx2q-34" value="" style="endArrow=classic;html=1;rounded=0;entryX=1;entryY=1;entryDx=0;entryDy=0;exitX=0;exitY=0.5;exitDx=0;exitDy=0;" edge="1" parent="1" source="ZJUDYs6P_OA5Siq6tx2q-33" target="ZJUDYs6P_OA5Siq6tx2q-35">
          <mxGeometry width="50" height="50" relative="1" as="geometry">
            <mxPoint x="110" y="430" as="sourcePoint" />
            <mxPoint x="160" y="380" as="targetPoint" />
            <Array as="points" />
          </mxGeometry>
        </mxCell>
        <mxCell id="ZJUDYs6P_OA5Siq6tx2q-35" value="&lt;font style=&quot;font-size: 8px;&quot;&gt;merge files&lt;/font&gt;" style="rhombus;whiteSpace=wrap;html=1;" vertex="1" parent="1">
          <mxGeometry x="40" y="300" width="80" height="40" as="geometry" />
        </mxCell>
        <mxCell id="ZJUDYs6P_OA5Siq6tx2q-37" value="" style="endArrow=classic;html=1;rounded=0;exitX=1;exitY=0.5;exitDx=0;exitDy=0;entryX=0;entryY=0;entryDx=0;entryDy=0;" edge="1" parent="1" source="ZJUDYs6P_OA5Siq6tx2q-35" target="ZJUDYs6P_OA5Siq6tx2q-33">
          <mxGeometry width="50" height="50" relative="1" as="geometry">
            <mxPoint x="260" y="370" as="sourcePoint" />
            <mxPoint x="310" y="320" as="targetPoint" />
            <Array as="points" />
          </mxGeometry>
        </mxCell>
        <mxCell id="ZJUDYs6P_OA5Siq6tx2q-38" value="" style="endArrow=classic;html=1;rounded=0;entryX=1;entryY=1;entryDx=0;entryDy=0;exitX=0;exitY=0.5;exitDx=0;exitDy=0;" edge="1" target="ZJUDYs6P_OA5Siq6tx2q-39" parent="1" source="ZJUDYs6P_OA5Siq6tx2q-33">
          <mxGeometry width="50" height="50" relative="1" as="geometry">
            <mxPoint x="220" y="380" as="sourcePoint" />
            <mxPoint x="170" y="390" as="targetPoint" />
            <Array as="points" />
          </mxGeometry>
        </mxCell>
        <mxCell id="ZJUDYs6P_OA5Siq6tx2q-39" value="&lt;font style=&quot;font-size: 8px;&quot;&gt;merge files&lt;/font&gt;" style="rhombus;whiteSpace=wrap;html=1;" vertex="1" parent="1">
          <mxGeometry x="40" y="350" width="80" height="40" as="geometry" />
        </mxCell>
        <mxCell id="ZJUDYs6P_OA5Siq6tx2q-40" value="" style="endArrow=classic;html=1;rounded=0;exitX=1;exitY=0;exitDx=0;exitDy=0;entryX=0;entryY=0.5;entryDx=0;entryDy=0;" edge="1" source="ZJUDYs6P_OA5Siq6tx2q-39" parent="1" target="ZJUDYs6P_OA5Siq6tx2q-33">
          <mxGeometry width="50" height="50" relative="1" as="geometry">
            <mxPoint x="270" y="380" as="sourcePoint" />
            <mxPoint x="220" y="360" as="targetPoint" />
            <Array as="points" />
          </mxGeometry>
        </mxCell>
        <mxCell id="ZJUDYs6P_OA5Siq6tx2q-41" value="" style="endArrow=classic;html=1;rounded=0;entryX=1;entryY=0;entryDx=0;entryDy=0;" edge="1" target="ZJUDYs6P_OA5Siq6tx2q-42" parent="1">
          <mxGeometry width="50" height="50" relative="1" as="geometry">
            <mxPoint x="190" y="360" as="sourcePoint" />
            <mxPoint x="140" y="470" as="targetPoint" />
            <Array as="points" />
          </mxGeometry>
        </mxCell>
        <mxCell id="ZJUDYs6P_OA5Siq6tx2q-42" value="&lt;font style=&quot;font-size: 8px;&quot;&gt;merge files&lt;/font&gt;" style="rhombus;whiteSpace=wrap;html=1;" vertex="1" parent="1">
          <mxGeometry x="40" y="410" width="80" height="40" as="geometry" />
        </mxCell>
        <mxCell id="ZJUDYs6P_OA5Siq6tx2q-43" value="" style="endArrow=classic;html=1;rounded=0;exitX=1;exitY=0.5;exitDx=0;exitDy=0;entryX=0;entryY=1;entryDx=0;entryDy=0;" edge="1" source="ZJUDYs6P_OA5Siq6tx2q-42" parent="1" target="ZJUDYs6P_OA5Siq6tx2q-33">
          <mxGeometry width="50" height="50" relative="1" as="geometry">
            <mxPoint x="240" y="460" as="sourcePoint" />
            <mxPoint x="190" y="440" as="targetPoint" />
            <Array as="points" />
          </mxGeometry>
        </mxCell>
      </root>
    </mxGraphModel>
  </diagram>
</mxfile>
